<svg xmlns="http://www.w3.org/2000/svg" version="1.1" xmlns:xlink="http://www.w3.org/1999/xlink" xmlns:svgjs="http://svgjs.dev/svgjs" width="1440" height="810" preserveAspectRatio="none" viewBox="0 0 1440 810"><g mask="url(&quot;#SvgjsMask1711&quot;)" fill="none"><rect width="1440" height="810" x="0" y="0" fill="rgba(250, 193, 171, 1)"></rect><path d="M0,519.037C133.141,530.743,258.215,641.789,384.702,598.608C514.111,554.43,594.033,421.611,650.366,297.012C706.569,172.702,756.256,23.916,700.904,-100.775C646.277,-223.832,470.401,-230.011,374.474,-324.483C290.032,-407.644,286.176,-560.604,180.172,-613.608C71.672,-667.861,-66.683,-652.139,-176.114,-599.79C-279.861,-550.16,-325.964,-433.857,-392.169,-339.817C-451.363,-255.737,-512.898,-176.332,-543.373,-78.125C-578.143,33.923,-616.155,153.239,-579.779,264.776C-541.95,380.768,-455.285,485.578,-343.552,534.578C-236.399,581.57,-116.554,508.789,0,519.037" fill="#f8aa8b"></path><path d="M1440 1273.382C1545.182 1293.574 1653.105 1334.757 1753.813 1298.3020000000001 1862.968 1258.79 1947.279 1168.62 2006.018 1068.492 2068.67 961.694 2139.033 831.681 2095.562 715.744 2051.5 598.23 1879.3890000000001 595.237 1794.061 503.204 1713.321 416.12 1733.38 232.23900000000003 1618.698 201.409 1503.096 170.332 1426.239 338.283 1311.853 373.571 1200.002 408.077 1067.605 338.821 968.971 401.851 863.847 469.028 767.217 590.501 777.87 714.8 788.782 842.125 936.163 905.516 1020.375 1001.636 1078.152 1067.583 1121.524 1143.388 1195.117 1191.046 1268.896 1238.824 1353.6779999999999 1256.81 1440 1273.382" fill="#fcd9cb"></path></g><defs><mask id="SvgjsMask1711"><rect width="1440" height="810" fill="#ffffff"></rect></mask></defs></svg>